<?xml version="1.0" standalone="no"?><!DOCTYPE svg PUBLIC "-//W3C//DTD SVG 1.1//EN" "http://www.w3.org/Graphics/SVG/1.1/DTD/svg11.dtd"><svg t="1676609041914" class="icon" viewBox="0 0 1024 1024" version="1.1" xmlns="http://www.w3.org/2000/svg" p-id="3035" xmlns:xlink="http://www.w3.org/1999/xlink" width="200" height="200"><path d="M485.289626 241.519089 261.986808 421.942035c0 0.204677 0 0.511693 0 0.71637l0 332.60044c0 5.11693 4.093544 9.210474 9.210474 9.210474l96.198281 0c5.11693 0 9.210474-4.093544 9.210474-9.210474L376.606036 603.797721c0-29.88287 24.356586-54.239456 54.239456-54.239456l111.549071 0c29.88287 0 54.239456 24.356586 54.239456 54.239456l0 151.461123c0 5.11693 4.093544 9.210474 9.210474 9.210474l93.128123 0c5.11693 0 9.210474-4.093544 9.210474-9.210474L708.18309 422.658405c0-0.71637 0-1.330402 0.102339-1.944433L497.058565 241.723766C493.681391 238.858285 488.6668 238.755946 485.289626 241.519089zM817.787727 454.38337l-291.665001-247.045373c-19.853688-16.78353-48.917849-17.192884-69.180891-0.818709L165.788527 441.795723c-9.722167 7.777733-11.154907 22.002798-3.377174 31.622626 7.777733 9.722167 22.002798 11.154907 31.622626 3.377174l22.923846-18.523286L216.957825 755.258845c0 29.88287 24.356586 54.239456 54.239456 54.239456l96.198281 0c29.88287 0 54.239456-24.356586 54.239456-54.239456L421.635019 603.797721c0-5.11693 4.093544-9.210474 9.210474-9.210474l111.549071 0c5.11693 0 9.210474 4.093544 9.210474 9.210474l0 151.461123c0 29.88287 24.356586 54.239456 54.239456 54.239456l93.128123 0c29.88287 0 54.239456-24.356586 54.239456-54.239456L753.212073 458.78393l35.409155 29.985209c4.195882 3.581851 9.415151 5.321607 14.532081 5.321607 6.344993 0 12.689986-2.660804 17.192884-7.982411C828.430941 476.693184 827.202878 462.468119 817.787727 454.38337z" fill="#272636" p-id="3036"></path></svg>